<svg width="107" height="111" viewBox="0 0 107 111" fill="none" xmlns="http://www.w3.org/2000/svg">
<path d="M0 76.9211L70 0H107L0 111V76.9211Z" fill="#FF2763"/>
<path d="M23.1922 72.4947C24.3415 71.2366 24.588 69.739 23.849 68.235L22.8945 68.7283C23.4537 69.8242 23.2808 70.8853 22.4391 71.8068C21.2332 73.1269 19.6424 73.0714 18.083 71.647C16.5325 70.2307 16.3514 68.6675 17.5815 67.3208C18.4313 66.3905 19.4216 66.1249 20.5554 66.5917L20.9355 65.6062C19.396 64.9963 17.9777 65.3748 16.8284 66.6329C15.1855 68.4315 15.3869 70.6308 17.3627 72.4356C19.3562 74.2566 21.5655 74.2755 23.1922 72.4947ZM28.0386 67.1358C29.2121 65.8511 28.9879 64.086 27.7209 62.9286C26.445 61.7632 24.6765 61.7243 23.5111 63.0001C22.3376 64.2848 22.5603 66.016 23.8361 67.1814C25.112 68.3469 26.8651 68.4205 28.0386 67.1358ZM27.3652 66.5207C26.5559 67.4067 25.427 67.2369 24.5322 66.4195C23.6373 65.6021 23.3671 64.5101 24.1845 63.6152C25.0019 62.7204 26.1211 62.8651 27.0249 63.6906C27.9109 64.4999 28.1826 65.6258 27.3652 66.5207ZM30.7023 55.1276C30.1277 55.7567 29.9314 56.4875 30.2499 57.331C29.42 57.0118 28.7438 57.2717 28.2258 57.8388C27.7968 58.3083 27.5605 58.9051 27.7615 59.5925L27.221 59.0988L26.5412 59.8431L30.9173 63.8242L31.6133 63.0622L29.6552 61.2736C28.7072 60.4076 27.9765 59.4639 28.7697 58.5956C29.4414 57.8602 30.2685 58.307 30.8621 58.8492L33.3695 61.1396L34.0656 60.3776L32.1075 58.589C31.1595 57.7231 30.4207 56.7882 31.2381 55.8933C32.0312 55.025 32.9334 55.8166 33.2967 56.1484L35.8218 58.455L36.5178 57.693L33.7712 55.1841C32.7966 54.2939 31.6573 54.0821 30.7023 55.1276ZM32.5 51.5582L33.277 50.7076L32.3467 49.8578L31.5697 50.7084L32.5 51.5582ZM37.7856 56.3051L38.4817 55.5431L34.1137 51.5532L33.4177 52.3151L37.7856 56.3051ZM37.3757 47.822C36.8334 48.4156 36.6121 49.1561 36.7703 49.8369L36.1767 49.2947L35.4807 50.0566L39.8487 54.0466L40.5447 53.2846L38.6575 51.5608C37.5766 50.5734 37.0617 49.518 37.8629 48.6408C38.5103 47.932 39.2104 48.1976 39.9369 48.8613L42.4709 51.1759L43.1669 50.414L40.4468 47.9294C39.3216 46.9015 38.2497 46.8651 37.3757 47.822ZM45.2893 46.9339C44.6504 47.4555 44.0835 47.8803 43.6759 47.5081C43.5165 47.3624 43.4653 47.1693 43.5223 46.9289C43.8818 46.8022 44.2279 46.5657 44.5273 46.2379C45.3771 45.3076 45.4707 43.9953 44.5492 43.1536C44.248 42.8785 43.9005 42.7073 43.5406 42.6386L43.5948 41.5829L42.7433 41.5365L42.7084 42.6423C42.2375 42.7485 41.7817 42.9985 41.4013 43.4149C40.5353 44.3629 40.4772 45.7076 41.3898 46.5412C41.7708 46.8892 42.2377 47.072 42.722 47.0755C42.6676 47.5622 42.7877 47.9644 43.1598 48.3043C43.6028 48.709 44.0702 48.7134 44.5291 48.5312L44.4206 49.6998C44.4657 49.7572 44.5107 49.8146 44.5993 49.8956C45.4853 50.7049 46.6436 50.3977 47.7767 49.1573C48.8045 48.032 49.135 46.8874 48.2844 46.1105C47.3009 45.2121 46.2146 46.1701 45.2893 46.9339ZM42.0473 43.9888C42.5734 43.4129 43.2862 43.3976 43.8355 43.8994C44.3582 44.3769 44.4413 45.0866 43.899 45.6803C43.3487 46.2827 42.6174 46.2649 42.1035 45.7954C41.5542 45.2937 41.5374 44.547 42.0473 43.9888ZM47.1977 48.5634C46.5907 49.2279 45.872 49.6766 45.3316 49.1829C45.3138 49.1667 45.2961 49.1506 45.2688 49.1093L45.2413 48.1253C45.4305 47.9893 45.6189 47.8364 45.7993 47.6923C46.5369 47.0984 47.1897 46.5082 47.6593 46.9372C48.0402 47.2852 47.8047 47.8989 47.1977 48.5634ZM52.5606 40.3259C53.7261 39.05 53.7302 37.6399 52.6582 36.6606C51.7899 35.8675 50.9303 35.8299 49.1782 36.7161C47.932 37.333 47.3012 37.472 46.7873 37.0026C46.3089 36.5655 46.3075 35.7842 46.8336 35.2083C47.2868 34.7121 47.9418 34.5466 48.638 34.7274L48.8375 33.6906C47.8072 33.4484 46.8775 33.7368 46.1491 34.5342C45.1617 35.6151 45.1367 36.9413 46.0936 37.8154C46.9265 38.5762 47.783 38.5459 49.4276 37.7241C50.7651 37.0605 51.4159 36.9886 52.0007 37.5227C52.5766 38.0488 52.5964 38.8633 51.8599 39.6696C51.1396 40.4581 50.1521 40.5962 49.2753 39.9903L48.758 40.9481C49.975 41.7509 51.4923 41.4954 52.5606 40.3259ZM57.1644 35.2504C58.3379 33.9657 58.1137 32.2006 56.8467 31.0432C55.5709 29.8778 53.8024 29.8389 52.6369 31.1147C51.4634 32.3994 51.6861 34.1306 52.962 35.296C54.2378 36.4615 55.9909 36.5351 57.1644 35.2504ZM56.491 34.6353C55.6817 35.5213 54.5528 35.3515 53.658 34.5341C52.7631 33.7167 52.4929 32.6247 53.3103 31.7298C54.1277 30.8349 55.247 30.9797 56.1507 31.8052C57.0367 32.6145 57.3085 33.7404 56.491 34.6353ZM61.7091 30.275C62.8826 28.9903 62.6584 27.2252 61.3914 26.0679C60.1156 24.9025 58.3471 24.8636 57.1817 26.1394C56.0081 27.4241 56.2308 29.1553 57.5067 30.3207C58.7825 31.4861 60.5356 31.5597 61.7091 30.275ZM61.0358 29.66C60.2264 30.546 59.0976 30.3762 58.2027 29.5588C57.3078 28.7413 57.0376 27.6494 57.855 26.7545C58.6724 25.8596 59.7917 26.0044 60.6954 26.8299C61.5814 27.6392 61.8532 28.7651 61.0358 29.66ZM62.1148 20.7388C61.5726 21.3324 61.3513 22.0729 61.5095 22.7538L60.9159 22.2115L60.2198 22.9735L64.5878 26.9634L65.2838 26.2015L63.3967 24.4776C62.3157 23.4903 61.8008 22.4348 62.6021 21.5577C63.2495 20.8489 63.9495 21.1145 64.6761 21.7781L67.21 24.0928L67.906 23.3308L65.186 20.8462C64.0608 19.8184 62.9889 19.7819 62.1148 20.7388Z" fill="white"/>
</svg>
