<svg xmlns="http://www.w3.org/2000/svg" viewBox="0 0 303.2 200"><defs><style>.cls-1{fill:#fe4c00;}.cls-2{fill:#191769;}.cls-3{fill:none;}.cls-4{fill:#894c79;}</style></defs><title>credybul_logo</title><g id="Layer_2" data-name="Layer 2"><g id="Layer_1-2" data-name="Layer 1"><path class="cls-1" d="M255.72,98.65a23.61,23.61,0,0,1-23.61,23.61,23.29,23.29,0,0,1-6.77-1,23,23,0,0,1-6.32-3c-.45-.3-.89-.62-1.32-1a23.62,23.62,0,0,0-34.37,9.41l0,0a61.81,61.81,0,0,1-109.31,4,55.62,55.62,0,0,1-2.56-5l0,0a61.94,61.94,0,0,1-.58-50.21q1.05-2.44,2.31-4.79a61.82,61.82,0,0,1,109.5,1.11,23.61,23.61,0,0,0,35.07,8.06l.28-.21A23.55,23.55,0,0,1,232.11,75,23.61,23.61,0,0,1,255.72,98.65Z"/><path class="cls-2" d="M71.42,125.76a23.62,23.62,0,0,0-32.28-6.66,22.06,22.06,0,0,0-2.8,2.11,23.55,23.55,0,0,1-5.84,2.71,100.61,100.61,0,0,1-.59-45.33,22.49,22.49,0,0,1,5.76,2.46,21.77,21.77,0,0,0,3.16,2.24,23.59,23.59,0,0,0,32-7.74,61.94,61.94,0,0,0,.58,50.21Z"/><path class="cls-2" d="M224.76,76.21A23.26,23.26,0,0,0,218,79.72l-.28.21a23.61,23.61,0,0,1-35.07-8.06,61.82,61.82,0,0,0-109.5-1.11q-1.26,2.34-2.31,4.79a23.59,23.59,0,0,1-32,7.74,21.77,21.77,0,0,0-3.16-2.24,22.49,22.49,0,0,0-5.76-2.46c.24-1.12.5-2.22.79-3.33A100,100,0,0,1,223.93,73C224.22,74.08,224.5,75.14,224.76,76.21Z"/><path class="cls-3" d="M38.83,83.29a21.77,21.77,0,0,1-3.16-2.24A21.77,21.77,0,0,1,38.83,83.29Z"/><path class="cls-2" d="M225.34,121.27c-.23,1.06-.47,2.12-.74,3.17a100,100,0,0,1-193.23,2.82c-.31-1.11-.61-2.22-.87-3.34a23.55,23.55,0,0,0,5.84-2.71,22.06,22.06,0,0,0,2.8-2.11,23.62,23.62,0,0,1,32.28,6.66l0,0a55.62,55.62,0,0,0,2.56,5,61.81,61.81,0,0,0,109.31-4l0,0a23.62,23.62,0,0,1,34.37-9.41c.43.33.87.65,1.32,1A23,23,0,0,0,225.34,121.27Z"/><path class="cls-3" d="M39.14,119.1a22.06,22.06,0,0,1-2.8,2.11A22.06,22.06,0,0,1,39.14,119.1Z"/><path class="cls-1" d="M27.61,100a99.79,99.79,0,0,0,2.89,23.92,23.61,23.61,0,1,1-6.89-46.19,23.37,23.37,0,0,1,6.3.86A100,100,0,0,0,27.61,100Z"/><path class="cls-3" d="M38.83,83.29a21.77,21.77,0,0,1-3.16-2.24A21.77,21.77,0,0,1,38.83,83.29Z"/><path class="cls-3" d="M39.14,119.1a22.06,22.06,0,0,1-2.8,2.11A22.06,22.06,0,0,1,39.14,119.1Z"/><path class="cls-3" d="M39.14,119.1a22.06,22.06,0,0,1-2.8,2.11A22.06,22.06,0,0,1,39.14,119.1Z"/><path class="cls-3" d="M74,130.76a55.62,55.62,0,0,1-2.56-5A23.67,23.67,0,0,1,74,130.76Z"/><path class="cls-3" d="M38.83,83.29a21.77,21.77,0,0,1-3.16-2.24A21.77,21.77,0,0,1,38.83,83.29Z"/><path class="cls-3" d="M73.15,70.76a22.52,22.52,0,0,1-2.31,4.79Q71.89,73.11,73.15,70.76Z"/><circle class="cls-1" cx="288.61" cy="100" r="14.59"/><path class="cls-4" d="M71.41,125.76a23.62,23.62,0,0,0-32.27-6.67,21.47,21.47,0,0,0-2.81,2.11,23.65,23.65,0,0,1-5.83,2.71,100.43,100.43,0,0,1-.6-45.33A22.69,22.69,0,0,1,35.66,81a20.33,20.33,0,0,0,3.16,2.24,23.29,23.29,0,0,0,12,3.3,23.57,23.57,0,0,0,20-11,62,62,0,0,0,.58,50.22Z"/></g></g></svg>