<svg width="70" height="72" viewBox="0 0 70 72" fill="none" xmlns="http://www.w3.org/2000/svg">
<path d="M1.31446 19.7303C1.2885 19.8714 1.27386 20.0145 1.26914 20.1575V23.0958C1.27292 24.3068 2.02497 25.3893 3.15942 25.8146V30.1381C3.16461 31.5856 4.30284 32.7753 5.7484 32.8437V57.821C4.30284 57.8899 3.16461 59.0796 3.15942 60.5266V64.8373C2.02261 65.274 1.27103 66.3645 1.26914 67.5816V70.4557C1.26914 70.9915 1.70442 71.4264 2.24025 71.4264H67.7164C68.2522 71.4264 68.687 70.9915 68.687 70.4557V67.5816C68.6851 66.3641 67.9336 65.2735 66.7972 64.8373V60.5011C66.792 59.0536 65.6533 57.8639 64.2082 57.7955V32.8437C65.6533 32.7753 66.792 31.5856 66.7972 30.1381V25.8146C67.9312 25.3893 68.6833 24.3068 68.687 23.0958V20.1769C68.6828 20.0338 68.6677 19.8908 68.6417 19.7496C69.1299 19.9658 69.7006 19.7458 69.9168 19.2577C70.1331 18.77 69.9131 18.1992 69.4254 17.9825L35.4249 0.112241C35.1412 -0.0374138 34.8022 -0.0374138 34.5185 0.112241L0.518506 17.9632C0.0440482 18.2139 -0.137709 18.8007 0.11203 19.2752C0.340526 19.7085 0.856056 19.904 1.31446 19.7303ZM5.10116 27.4972V26.0021H16.2984V27.4845L5.10116 27.4972ZM30.0331 32.8503V57.821C28.5875 57.8899 27.4493 59.0796 27.4441 60.5266V64.656H18.2269V60.5266C18.2217 59.0796 17.0835 57.8899 15.6379 57.821V32.8437C17.0835 32.7753 18.2217 31.5856 18.2269 30.1381V26.0021H27.4309V30.132C27.4333 31.5818 28.5724 32.7743 30.0204 32.8437L30.0331 32.8503ZM29.3859 27.4972V26.0021H40.5835V27.4845L29.3859 27.4972ZM54.3183 32.8503V57.821C52.8727 57.8899 51.734 59.0796 51.7288 60.5266V64.656H42.5121V60.5266C42.5069 59.0796 41.3682 57.8899 39.9231 57.821V32.8437C41.3682 32.7753 42.5069 31.5856 42.5121 30.1381V26.0021H51.7161V30.132C51.718 31.5818 52.8571 32.7743 54.3051 32.8437L54.3183 32.8503ZM53.671 27.4972V26.0021H64.8682V27.4845L53.671 27.4972ZM64.8682 63.1741V64.656H53.6578V63.1741H64.8682ZM40.5835 63.1741V64.656H29.3731V63.1741H40.5835ZM30.991 30.9213H30.1497C29.7206 30.9213 29.3731 30.5739 29.3731 30.1447V29.4389H40.5703V30.1447C40.5703 30.5739 40.2229 30.9213 39.7937 30.9213H30.991ZM37.9879 32.8631V57.8082H31.9621V32.8631H37.9879ZM30.991 59.75H39.7937C40.2229 59.75 40.5703 60.0974 40.5703 60.5266V61.2323H29.3731V60.5266C29.3731 60.0974 29.7206 59.75 30.1497 59.75H30.991ZM16.2856 63.1741V64.656H5.08794V63.1741H16.2856ZM5.08794 30.1641V29.4389H16.2856V30.1447C16.2856 30.5739 15.9382 30.9213 15.5085 30.9213H5.84518C5.42124 30.9109 5.08416 30.5621 5.08794 30.1381V30.1641ZM13.6966 32.8824V57.8082H7.67692V32.8631L13.6966 32.8824ZM5.08794 60.5464C5.08794 60.1168 5.4354 59.7693 5.86454 59.7693H15.5085C15.9382 59.7693 16.2856 60.1168 16.2856 60.5464V61.2517H5.08794V60.5464ZM66.7453 67.6208V69.5233H3.19813V67.6208C3.19813 67.0665 3.6471 66.6171 4.20134 66.6171H65.7421C66.2883 66.6171 66.7349 67.0547 66.7453 67.6009V67.6208ZM64.8555 60.5464V61.2517H53.6578V60.5464C53.6578 60.1168 54.0053 59.7693 54.4344 59.7693H64.0982C64.5123 59.7797 64.8451 60.1125 64.8555 60.5266V60.5464ZM56.2468 57.8276V32.8631H62.2726V57.8082L56.2468 57.8276ZM64.8555 30.1641C64.8555 30.5932 64.508 30.9407 64.0789 30.9407H54.441C54.0119 30.9407 53.6644 30.5932 53.6644 30.1641V29.4389H64.8616L64.8555 30.1641ZM34.9717 2.05398L63.8844 17.2513H6.05904L34.9717 2.05398ZM3.19813 20.1769C3.19813 19.641 3.63293 19.2062 4.16877 19.2062H65.7747C66.3105 19.2062 66.7453 19.641 66.7453 20.1769V23.1157C66.7453 23.6515 66.3105 24.0863 65.7747 24.0863H4.16877C3.63293 24.0863 3.19813 23.6515 3.19813 23.1157V20.1769Z" fill="#191769"/>
</svg>
