<svg width="70" height="70" viewBox="0 0 70 70" fill="none" xmlns="http://www.w3.org/2000/svg">
<g clip-path="url(#clip0)">
<path d="M68.5417 69.9999H1.45833C0.653333 69.9999 0 69.3466 0 68.5416C0 67.7366 0.653333 67.0833 1.45833 67.0833H68.5417C69.3467 67.0833 70 67.7366 70 68.5416C70 69.3466 69.3467 69.9999 68.5417 69.9999Z" fill="#191769"/>
<path d="M18.9583 70H4.37496C3.56996 70 2.91663 69.3467 2.91663 68.5417V52.5C2.91663 50.893 4.22329 49.5834 5.83329 49.5834H17.5C19.11 49.5834 20.4166 50.893 20.4166 52.5V68.5417C20.4166 69.3467 19.7633 70 18.9583 70ZM5.83329 67.0834H17.5V52.5H5.83329V67.0834Z" fill="#191769"/>
<path d="M42.2917 70H27.7083C26.9033 70 26.25 69.3467 26.25 68.5417V35C26.25 33.393 27.5567 32.0834 29.1667 32.0834H40.8333C42.4433 32.0834 43.75 33.393 43.75 35V68.5417C43.75 69.3467 43.0967 70 42.2917 70ZM29.1667 67.0834H40.8333V35H29.1667V67.0834Z" fill="#191769"/>
<path d="M65.625 70H51.0416C50.2366 70 49.5833 69.3466 49.5833 68.5416V40.8333C49.5833 39.2262 50.89 37.9166 52.5 37.9166H64.1666C65.7766 37.9166 67.0833 39.2262 67.0833 40.8333V68.5416C67.0833 69.3466 66.43 70 65.625 70ZM52.5 67.0833H64.1666V40.8333H52.5V67.0833Z" fill="#191769"/>
<path d="M7.29164 32.0833C6.91831 32.0833 6.54498 31.9404 6.25914 31.6575C5.69039 31.0887 5.69039 30.1641 6.25914 29.5954L20.8425 15.012C21.2041 14.6504 21.7262 14.4987 22.2279 14.627L44.7621 20.2591L61.6787 3.34246C62.2475 2.77371 63.1721 2.77371 63.7408 3.34246C64.3096 3.91121 64.3096 4.83579 63.7408 5.40454L46.2408 22.9045C45.8821 23.2662 45.3571 23.412 44.8554 23.2866L22.3212 17.6575L8.32123 31.6575C8.03831 31.9404 7.66498 32.0833 7.29164 32.0833Z" fill="#191769"/>
<path d="M62.7083 17.5C61.9033 17.5 61.25 16.8466 61.25 16.0416V5.83329H51.0416C50.2366 5.83329 49.5833 5.17996 49.5833 4.37496C49.5833 3.56996 50.2366 2.91663 51.0416 2.91663H62.7083C63.5133 2.91663 64.1666 3.56996 64.1666 4.37496V16.0416C64.1666 16.8466 63.5133 17.5 62.7083 17.5Z" fill="#191769"/>
</g>
<defs>
<clipPath id="clip0">
<rect width="70" height="70" fill="white"/>
</clipPath>
</defs>
</svg>
