<svg width="70" height="70" viewBox="0 0 70 70" fill="none" xmlns="http://www.w3.org/2000/svg">
<g clip-path="url(#clip0)">
<path d="M43.6738 19.3829C43.8647 19.1123 44.0162 18.816 44.1233 18.5027C44.6035 18.5836 45.0615 18.7665 45.4649 19.0393C46.2766 19.5879 47.2285 19.8921 48.2078 19.9172C48.5171 19.9161 48.8253 19.8876 49.1295 19.8329C50.4107 19.6141 51.5529 18.8952 52.3037 17.8345C52.7059 17.2005 53.3564 16.7652 54.0953 16.6348C54.8347 16.5049 55.5947 16.6912 56.1888 17.1498C57.2581 17.8898 58.5769 18.1746 59.8558 17.9416L59.4496 15.6436C58.7107 15.774 57.9508 15.5872 57.3566 15.1292C55.1281 13.6042 52.0895 14.1402 50.5167 16.3351C50.1145 16.9692 49.4639 17.4044 48.7245 17.5349C48.3878 17.6027 48.0397 17.5941 47.7059 17.5104C48.3964 17.3281 49.035 16.9891 49.5727 16.5197C50.5731 15.6897 51.2025 14.4957 51.3227 13.2014C51.3541 12.4512 51.6999 11.7493 52.2758 11.2674C52.8483 10.7798 53.6014 10.561 54.3454 10.6653C55.6425 10.7832 56.9317 10.3685 57.9166 9.51739L56.4133 7.73091C55.8316 8.20089 55.0859 8.41736 54.3431 8.33191C51.6509 8.12626 49.2867 10.1093 49.0219 12.797C48.9911 13.5461 48.6459 14.2479 48.0717 14.7304C47.4969 15.2123 46.746 15.4311 46.0026 15.332C45.2746 15.2756 44.5426 15.373 43.855 15.6191C43.5337 15.0619 43.0649 14.6039 42.5003 14.2957L47.7167 3.87542C47.8979 3.51254 47.878 3.08187 47.6638 2.73722C47.4496 2.39315 47.0719 2.18465 46.6669 2.18693C45.8448 2.19433 45.0558 1.86564 44.4828 1.27717C42.4228 -0.620385 39.2527 -0.620385 37.1933 1.27717C36.6145 1.86051 35.8267 2.18807 35.0052 2.18807C34.1832 2.18807 33.3959 1.86051 32.8171 1.27717C30.7555 -0.619246 27.5848 -0.619246 25.5231 1.27717C24.9478 1.86621 24.1565 2.1949 23.3333 2.18693C22.9289 2.18693 22.5529 2.396 22.3404 2.74007C22.1274 3.08358 22.108 3.51368 22.2891 3.87542L27.4993 14.2957C26.6163 14.7669 25.98 15.5969 25.755 16.5721C25.53 17.5474 25.7379 18.5722 26.3258 19.3829C15.6286 22.2563 8.18593 31.944 8.16656 43.0206V64.0207C8.16998 67.241 10.7796 69.8501 13.9999 69.8541H56.0003C59.22 69.8501 61.8296 67.241 61.8336 64.0207V43.0206C61.8137 31.944 54.371 22.2563 43.6738 19.3829ZM26.9803 3.09839C27.5597 2.51505 28.3475 2.18693 29.1701 2.18693C29.9922 2.18693 30.7806 2.51505 31.3599 3.09839C33.4204 4.99424 36.5906 4.99424 38.6517 3.09839C39.2299 2.51505 40.0166 2.18693 40.838 2.18693C41.6589 2.18693 42.4462 2.51505 43.0244 3.09839C43.5815 3.59001 44.223 3.97796 44.918 4.24285L40.1123 13.8537H29.8874L25.0834 4.24399C25.7789 3.97853 26.4215 3.59058 26.9803 3.09839ZM29.1667 18.5204C28.5219 18.5204 28 17.998 28 17.3537C28 16.7094 28.5219 16.187 29.1667 16.187H40.8335C41.4778 16.187 42.0002 16.7094 42.0002 17.3537C42.0002 17.998 41.4778 18.5204 40.8335 18.5204H29.1667ZM59.5003 64.0207C59.5003 65.9536 57.9331 67.5208 56.0003 67.5208H13.9999C12.0665 67.5208 10.4999 65.9536 10.4999 64.0207V43.0206C10.513 30.7836 20.4298 20.8674 32.6667 20.8537H37.3335C49.5699 20.8674 59.4866 30.7836 59.5003 43.0206V64.0207Z" fill="#2D2275"/>
<path d="M27.1746 51.5286L41.1752 37.5284L42.825 39.1782L28.8249 53.1789L27.1746 51.5286Z" fill="#2D2275"/>
<path d="M39.6667 46.5206C37.7333 46.5206 36.1667 48.0878 36.1667 50.0207C36.1667 51.9535 37.7333 53.5207 39.6667 53.5207C41.5996 53.5207 43.1667 51.9535 43.1667 50.0207C43.1667 48.0878 41.5996 46.5206 39.6667 46.5206ZM39.6667 51.1873C39.0219 51.1873 38.5 50.6649 38.5 50.0207C38.5 49.3764 39.0219 48.854 39.6667 48.854C40.311 48.854 40.8334 49.3764 40.8334 50.0207C40.8334 50.6649 40.311 51.1873 39.6667 51.1873Z" fill="#2D2275"/>
<path d="M30.3333 44.1872C32.2662 44.1872 33.8334 42.62 33.8334 40.6872C33.8334 38.7543 32.2662 37.1871 30.3333 37.1871C28.3999 37.1871 26.8333 38.7543 26.8333 40.6872C26.8333 42.62 28.3999 44.1872 30.3333 44.1872ZM30.3333 39.5205C30.9776 39.5205 31.5 40.0429 31.5 40.6872C31.5 41.3315 30.9776 41.8538 30.3333 41.8538C29.6885 41.8538 29.1667 41.3315 29.1667 40.6872C29.1667 40.0429 29.6885 39.5205 30.3333 39.5205Z" fill="#2D2275"/>
<path d="M35 29.0205C25.9788 29.0205 18.6666 36.3333 18.6666 45.354C18.6666 54.3746 25.9788 61.6874 35 61.6874C44.0207 61.6874 51.3335 54.3746 51.3335 45.354C51.3238 36.3373 44.0167 29.0302 35 29.0205ZM35 59.3541C27.2679 59.3541 20.9999 53.086 20.9999 45.354C20.9999 37.6219 27.2679 31.3539 35 31.3539C42.7315 31.3539 49.0001 37.6219 49.0001 45.354C48.9916 53.0826 42.7281 59.3455 35 59.3541Z" fill="#2D2275"/>
</g>
<defs>
<clipPath id="clip0">
<rect width="70" height="70" fill="white"/>
</clipPath>
</defs>
</svg>
