<svg width="107" height="111" viewBox="0 0 107 111" fill="none" xmlns="http://www.w3.org/2000/svg">
<path d="M0 76.9211L70 0H107L0 111V76.9211Z" fill="#35D11B"/>
<path d="M25.8179 72.7183L21.5062 71.8516C22.0131 70.8519 21.8434 69.9167 20.9662 69.1155C19.8499 68.0957 18.6065 68.2114 17.352 69.5847L15.6606 71.4365L21.836 77.0774L22.5563 76.2889L19.8806 73.8448L20.528 73.1359L20.8922 72.7372L24.9843 73.6309L25.8179 72.7183ZM19.1452 73.173L17.1074 71.3116L18.0057 70.3281C18.815 69.4421 19.5549 69.2727 20.2548 69.9121C20.9547 70.5515 20.8529 71.3035 20.0435 72.1896L19.1452 73.173ZM27.5273 66.1318C26.4641 65.1606 24.8852 64.8074 23.6632 66.1452C22.4492 67.4742 22.9312 69.1172 24.1362 70.2179C25.35 71.3267 26.9847 71.601 28.2554 70.21C28.8866 69.5189 29.1507 68.785 29.0724 67.8032L28.1253 67.897C28.1841 68.6333 27.9682 69.1188 27.5635 69.5618C26.827 70.368 25.8931 70.3763 25.036 69.6421L27.8929 66.5145C27.7939 66.3916 27.6513 66.2451 27.5273 66.1318ZM24.4158 69.0756C23.8087 68.4235 23.6132 67.481 24.293 66.7368C24.9647 66.0014 25.8478 65.9954 26.5455 66.584C26.5809 66.6163 26.6075 66.6406 26.6333 66.6479L24.4158 69.0756ZM32.4988 65.5645C33.2434 64.7494 33.3912 63.6979 32.8609 62.6772L31.9557 63.1343C32.3409 63.7624 32.2868 64.4444 31.8174 64.9583C31.0242 65.8265 29.9312 65.5107 29.1072 64.7581C28.2832 64.0054 27.8435 62.9211 28.6366 62.0528C29.0979 61.5478 29.7811 61.4404 30.4745 61.7488L30.8458 60.7552C29.6973 60.34 28.6997 60.6315 27.9632 61.4377C26.725 62.7933 27.2432 64.4856 28.395 65.5378C29.5911 66.6303 31.2929 66.8846 32.4988 65.5645ZM36.6105 61.0632C37.7841 59.7785 37.5598 58.0134 36.2928 56.8561C35.017 55.6906 33.2485 55.6517 32.0831 56.9276C30.9096 58.2123 31.1323 59.9434 32.4081 61.1089C33.6839 62.2743 35.437 62.3479 36.6105 61.0632ZM35.9372 60.4481C35.1279 61.3341 33.999 61.1643 33.1041 60.3469C32.2093 59.5295 31.939 58.4375 32.7564 57.5426C33.5738 56.6478 34.6931 56.7925 35.5968 57.618C36.4828 58.4273 36.7546 59.5532 35.9372 60.4481ZM39.2743 49.055C38.6997 49.6841 38.5034 50.4149 38.8218 51.2584C37.992 50.9392 37.3157 51.1991 36.7977 51.7662C36.3688 52.2358 36.1325 52.8325 36.3335 53.5199L35.793 53.0263L35.1132 53.7705L39.4892 57.7516L40.1853 56.9896L38.2272 55.201C37.2792 54.3351 36.5485 53.3913 37.3416 52.523C38.0134 51.7876 38.8405 52.2344 39.4341 52.7766L41.9415 55.067L42.6375 54.305L40.6794 52.5164C39.7314 51.6505 38.9926 50.7156 39.81 49.8207C40.6032 48.9524 41.5054 49.744 41.8686 50.0759L44.3937 52.3824L45.0898 51.6205L42.3431 49.1116C41.3685 48.2213 40.2293 48.0095 39.2743 49.055ZM46.1426 41.5359C45.568 42.165 45.3717 42.8958 45.6902 43.7393C44.8603 43.4201 44.1841 43.68 43.6661 44.2471C43.2372 44.7166 43.0008 45.3134 43.2018 46.0008L42.6614 45.5071L41.9815 46.2514L46.3576 50.2325L47.0536 49.4705L45.0956 47.6819C44.1475 46.8159 43.4168 45.8722 44.21 45.0039C44.8817 44.2685 45.7088 44.7153 46.3025 45.2575L48.8098 47.5479L49.5059 46.7859L47.5478 44.9973C46.5998 44.1314 45.861 43.1965 46.6784 42.3016C47.4715 41.4333 48.3737 42.2249 48.737 42.5567L51.2621 44.8633L51.9581 44.1013L49.2115 41.5925C48.2369 40.7022 47.0976 40.4904 46.1426 41.5359ZM54.1315 37.0069C53.0683 36.0358 51.4895 35.6825 50.2674 37.0203C49.0534 38.3493 49.5354 39.9924 50.7404 41.093C51.9542 42.2018 53.589 42.4761 54.8596 41.0851C55.4909 40.394 55.755 39.6601 55.6766 38.6783L54.7295 38.7721C54.7883 39.5084 54.5724 39.9939 54.1677 40.4369C53.4313 41.2431 52.4973 41.2514 51.6402 40.5172L54.4971 37.3896C54.3981 37.2667 54.2556 37.1202 54.1315 37.0069ZM51.02 39.9507C50.4129 39.2986 50.2174 38.3562 50.8972 37.6119C51.5689 36.8765 52.452 36.8706 53.1497 37.4591C53.1851 37.4914 53.2117 37.5157 53.2375 37.523L51.02 39.9507ZM55.0369 31.7989C54.4946 32.3926 54.2733 33.1331 54.4315 33.8139L53.8379 33.2717L53.1419 34.0336L57.5099 38.0236L58.2059 37.2616L56.3187 35.5378C55.2378 34.5504 54.7229 33.495 55.5241 32.6178C56.1715 31.909 56.8716 32.1746 57.5981 32.8383L60.1321 35.1529L60.8281 34.391L58.108 31.9064C56.9828 30.8785 55.9109 30.8421 55.0369 31.7989ZM58.6216 24.405L60.9784 26.5578C60.3045 26.4948 59.6128 26.7894 59.0868 27.3653C58.0185 28.5349 58.2158 30.0803 59.5979 31.3429C60.9004 32.5326 62.4731 32.7502 63.6142 31.501C64.1403 30.9251 64.3809 30.2347 64.2566 29.5523L64.797 30.046L65.4931 29.284L59.3176 23.643L58.6216 24.405ZM63.0526 30.7279C62.2676 31.5874 61.2243 31.4307 60.294 30.5809C59.3371 29.7068 59.1458 28.6707 59.8985 27.8468C60.6673 27.0051 61.735 27.1351 62.6653 27.9849C63.569 28.8104 63.8458 29.8597 63.0526 30.7279ZM67.7657 22.081C66.7025 21.1098 65.1236 20.7565 63.9015 22.0944C62.6875 23.4234 63.1696 25.0664 64.3745 26.1671C65.5884 27.2758 67.2231 27.5502 68.4937 26.1591C69.125 25.4681 69.3891 24.7341 69.3107 23.7524L68.3636 23.8462C68.4224 24.5825 68.2066 25.0679 67.8019 25.5109C67.0654 26.3172 66.1315 26.3254 65.2743 25.5913L68.1312 22.4637C68.0322 22.3407 67.8897 22.1943 67.7657 22.081ZM64.6541 25.0247C64.047 24.3727 63.8515 23.4302 64.5314 22.686C65.2031 21.9506 66.0862 21.9446 66.7838 22.5331C66.8193 22.5655 66.8459 22.5898 66.8717 22.5971L64.6541 25.0247ZM67.6636 14.5063L70.0204 16.6591C69.3465 16.5961 68.6548 16.8907 68.1288 17.4666C67.0605 18.6361 67.2578 20.1816 68.6399 21.4442C69.9424 22.6339 71.5151 22.8515 72.6562 21.6022C73.1823 21.0263 73.4229 20.3359 73.2986 19.6536L73.839 20.1472L74.5351 19.3853L68.3596 13.7443L67.6636 14.5063ZM72.0947 20.8292C71.3096 21.6886 70.2663 21.532 69.336 20.6822C68.3791 19.8081 68.1878 18.772 68.9405 17.948C69.7093 17.1063 70.777 17.2364 71.7073 18.0862C72.611 18.9117 72.8878 19.9609 72.0947 20.8292Z" fill="white"/>
</svg>
